<?xml version="1.0" encoding="UTF-8"?>
<svg xmlns="http://www.w3.org/2000/svg" width="32" height="32" id="game" viewBox="0 0 32 32">
<title>DKCF</title>
<g color="#000"><path fill="#373748" d="M.5 1020.361a.5.5 0 0 0-.5.5v31a.5.5 0 0 0 .5.5h31a.5.5 0 0 0 .5-.5v-31a.5.5 0 0 0-.5-.5H.5zm.5 1h30v30H1v-30z" font-family="sans-serif" font-weight="400" overflow="visible" style="line-height:normal;text-indent:0;text-align:start;text-decoration-line:none;text-decoration-style:solid;text-decoration-color:#000;text-transform:none;block-progression:tb;isolation:auto;mix-blend-mode:normal" transform="translate(0 -1020.362)"></path><path fill="#373748" d="M2.5 1020.361a2.508 2.508 0 0 0-2.5 2.5c0 1.375 1.125 2.5 2.5 2.5s2.5-1.125 2.5-2.5c0-1.374-1.125-2.5-2.5-2.5zm0 1c.834 0 1.5.666 1.5 1.5 0 .835-.666 1.5-1.5 1.5s-1.5-.665-1.5-1.5c0-.834.666-1.5 1.5-1.5zm27-1a2.508 2.508 0 0 0-2.5 2.5c0 1.375 1.125 2.5 2.5 2.5s2.5-1.125 2.5-2.5c0-1.374-1.125-2.5-2.5-2.5zm0 1c.834 0 1.5.666 1.5 1.5 0 .835-.666 1.5-1.5 1.5s-1.5-.665-1.5-1.5c0-.834.666-1.5 1.5-1.5zm-27 26a2.508 2.508 0 0 0-2.5 2.5c0 1.375 1.125 2.5 2.5 2.5s2.5-1.125 2.5-2.5-1.125-2.5-2.5-2.5zm0 1c.834 0 1.5.666 1.5 1.5 0 .835-.666 1.5-1.5 1.5s-1.5-.665-1.5-1.5c0-.834.666-1.5 1.5-1.5zm27-1a2.508 2.508 0 0 0-2.5 2.5c0 1.375 1.125 2.5 2.5 2.5s2.5-1.125 2.5-2.5-1.125-2.5-2.5-2.5zm0 1c.834 0 1.5.666 1.5 1.5 0 .835-.666 1.5-1.5 1.5s-1.5-.665-1.5-1.5c0-.834.666-1.5 1.5-1.5zm-13.5-17.5a5.508 5.508 0 0 0-5.5 5.5c0 3.032 2.468 5.5 5.5 5.5s5.5-2.468 5.5-5.5c0-3.031-2.468-5.5-5.5-5.5zm0 1c2.491 0 4.5 2.01 4.5 4.5 0 2.491-2.009 4.5-4.5 4.5a4.492 4.492 0 0 1-4.5-4.5c0-2.49 2.009-4.5 4.5-4.5zm-6.5-8c-.822 0-1.5.678-1.5 1.5 0 .823.678 1.5 1.5 1.5h13c.822 0 1.5-.677 1.5-1.5 0-.822-.678-1.5-1.5-1.5h-13zm0 1h13c.286 0 .5.215.5.5 0 .286-.214.5-.5.5h-13a.488.488 0 0 1-.5-.5c0-.285.214-.5.5-.5zm0 21c-.822 0-1.5.678-1.5 1.5 0 .823.678 1.5 1.5 1.5h13c.822 0 1.5-.677 1.5-1.5 0-.822-.678-1.5-1.5-1.5h-13zm0 1h13c.286 0 .5.215.5.5 0 .286-.214.5-.5.5h-13a.488.488 0 0 1-.5-.5c0-.285.214-.5.5-.5zm19-17c0-.822-.678-1.5-1.5-1.5s-1.5.678-1.5 1.5v13c0 .823.678 1.5 1.5 1.5s1.5-.677 1.5-1.5v-13zm-1 0v13c0 .286-.214.5-.5.5a.488.488 0 0 1-.5-.5v-13c0-.285.214-.5.5-.5.286 0 .5.215.5.5zm-21 0c0-.822-.678-1.5-1.5-1.5s-1.5.678-1.5 1.5v13c0 .823.678 1.5 1.5 1.5s1.5-.677 1.5-1.5v-13zm-1 0v13c0 .286-.214.5-.5.5a.488.488 0 0 1-.5-.5v-13c0-.285.214-.5.5-.5.286 0 .5.215.5.5z" font-family="sans-serif" font-weight="400" overflow="visible" style="line-height:normal;text-indent:0;text-align:start;text-decoration-line:none;text-decoration-style:solid;text-decoration-color:#000;text-transform:none;block-progression:tb;isolation:auto;mix-blend-mode:normal" transform="translate(0 -1020.362)"></path><path fill="#373748" fill-rule="evenodd" d="M5.008 1044.955a.5.5 0 0 0-.492.508v1.898a.5.5 0 1 0 1 0v-1.898a.5.5 0 0 0-.508-.508z" font-family="sans-serif" font-weight="400" overflow="visible" style="line-height:normal;text-indent:0;text-align:start;text-decoration-line:none;text-decoration-style:solid;text-decoration-color:#000;text-transform:none;block-progression:tb;isolation:auto;mix-blend-mode:normal" transform="translate(0 -1020.362)"></path><path fill="#373748" fill-rule="evenodd" d="M5.016 1046.861a.5.5 0 1 0 0 1h2a.5.5 0 1 0 0-1h-2z" font-family="sans-serif" font-weight="400" overflow="visible" style="line-height:normal;text-indent:0;text-align:start;text-decoration-line:none;text-decoration-style:solid;text-decoration-color:#000;text-transform:none;block-progression:tb;isolation:auto;mix-blend-mode:normal" transform="translate(0 -1020.362)"></path><path fill="#373748" fill-rule="evenodd" d="M8.682 1043.182a.5.5 0 0 0-.344.15l-3.692 3.676a.5.5 0 1 0 .708.709l3.689-3.676a.5.5 0 0 0-.361-.86zm18.316 1.773a.5.5 0 0 0-.492.508v1.898a.5.5 0 1 0 1 0v-1.898a.5.5 0 0 0-.508-.508z" font-family="sans-serif" font-weight="400" overflow="visible" style="line-height:normal;text-indent:0;text-align:start;text-decoration-line:none;text-decoration-style:solid;text-decoration-color:#000;text-transform:none;block-progression:tb;isolation:auto;mix-blend-mode:normal" transform="translate(0 -1020.362)"></path><path fill="#373748" fill-rule="evenodd" d="M25.006 1046.861a.5.5 0 1 0 0 1h2a.5.5 0 1 0 0-1h-2z" font-family="sans-serif" font-weight="400" overflow="visible" style="line-height:normal;text-indent:0;text-align:start;text-decoration-line:none;text-decoration-style:solid;text-decoration-color:#000;text-transform:none;block-progression:tb;isolation:auto;mix-blend-mode:normal" transform="translate(0 -1020.362)"></path><path fill="#373748" fill-rule="evenodd" d="M23.324 1043.182a.5.5 0 0 0-.347.859l3.691 3.676a.5.5 0 1 0 .705-.71l-3.69-3.675a.5.5 0 0 0-.359-.15z" font-family="sans-serif" font-weight="400" overflow="visible" style="line-height:normal;text-indent:0;text-align:start;text-decoration-line:none;text-decoration-style:solid;text-decoration-color:#000;text-transform:none;block-progression:tb;isolation:auto;mix-blend-mode:normal" transform="translate(0 -1020.362)"></path><path fill="#373748" d="M22.506 1041.37c-.823 0-1.5.677-1.5 1.5 0 .822.677 1.5 1.5 1.5.822 0 1.5-.678 1.5-1.5 0-.823-.678-1.5-1.5-1.5zm0 1c.282 0 .5.217.5.5 0 .281-.218.5-.5.5a.493.493 0 0 1-.5-.5c0-.283.218-.5.5-.5z" font-family="sans-serif" font-weight="400" overflow="visible" style="line-height:normal;text-indent:0;text-align:start;text-decoration-line:none;text-decoration-style:solid;text-decoration-color:#000;text-transform:none;block-progression:tb;isolation:auto;mix-blend-mode:normal" transform="translate(0 -1020.362)"></path><path fill="#373748" fill-rule="evenodd" d="M26.998 1024.855a.5.5 0 0 0-.492.506v1.9a.5.5 0 1 0 1 0v-1.9a.5.5 0 0 0-.508-.506z" font-family="sans-serif" font-weight="400" overflow="visible" style="line-height:normal;text-indent:0;text-align:start;text-decoration-line:none;text-decoration-style:solid;text-decoration-color:#000;text-transform:none;block-progression:tb;isolation:auto;mix-blend-mode:normal" transform="translate(0 -1020.362)"></path><path fill="#373748" fill-rule="evenodd" d="M25.006 1024.861a.5.5 0 1 0 0 1h2a.5.5 0 1 0 0-1h-2z" font-family="sans-serif" font-weight="400" overflow="visible" style="line-height:normal;text-indent:0;text-align:start;text-decoration-line:none;text-decoration-style:solid;text-decoration-color:#000;text-transform:none;block-progression:tb;isolation:auto;mix-blend-mode:normal" transform="translate(0 -1020.362)"></path><path fill="#373748" fill-rule="evenodd" d="M27.012 1024.857a.5.5 0 0 0-.344.15l-3.691 3.677a.5.5 0 1 0 .707.709l3.689-3.676a.5.5 0 0 0-.361-.86z" font-family="sans-serif" font-weight="400" overflow="visible" style="line-height:normal;text-indent:0;text-align:start;text-decoration-line:none;text-decoration-style:solid;text-decoration-color:#000;text-transform:none;block-progression:tb;isolation:auto;mix-blend-mode:normal" transform="translate(0 -1020.362)"></path><path fill="#373748" d="M22.506 1028.355c-.823 0-1.5.678-1.5 1.5 0 .823.677 1.5 1.5 1.5.822 0 1.5-.677 1.5-1.5 0-.822-.678-1.5-1.5-1.5zm0 1c.282 0 .5.218.5.5 0 .282-.218.5-.5.5a.493.493 0 0 1-.5-.5c0-.282.218-.5.5-.5z" font-family="sans-serif" font-weight="400" overflow="visible" style="line-height:normal;text-indent:0;text-align:start;text-decoration-line:none;text-decoration-style:solid;text-decoration-color:#000;text-transform:none;block-progression:tb;isolation:auto;mix-blend-mode:normal" transform="translate(0 -1020.362)"></path><path fill="#373748" fill-rule="evenodd" d="M5.008 1024.855a.5.5 0 0 0-.492.506v1.9a.5.5 0 1 0 1 0v-1.9a.5.5 0 0 0-.508-.506z" font-family="sans-serif" font-weight="400" overflow="visible" style="line-height:normal;text-indent:0;text-align:start;text-decoration-line:none;text-decoration-style:solid;text-decoration-color:#000;text-transform:none;block-progression:tb;isolation:auto;mix-blend-mode:normal" transform="translate(0 -1020.362)"></path><path fill="#373748" fill-rule="evenodd" d="M5.016 1024.861a.5.5 0 1 0 0 1h2a.5.5 0 1 0 0-1h-2z" font-family="sans-serif" font-weight="400" overflow="visible" style="line-height:normal;text-indent:0;text-align:start;text-decoration-line:none;text-decoration-style:solid;text-decoration-color:#000;text-transform:none;block-progression:tb;isolation:auto;mix-blend-mode:normal" transform="translate(0 -1020.362)"></path><path fill="#373748" fill-rule="evenodd" d="M4.994 1024.857a.5.5 0 0 0-.348.86l3.692 3.676a.5.5 0 1 0 .705-.71l-3.69-3.675a.5.5 0 0 0-.359-.15z" font-family="sans-serif" font-weight="400" overflow="visible" style="line-height:normal;text-indent:0;text-align:start;text-decoration-line:none;text-decoration-style:solid;text-decoration-color:#000;text-transform:none;block-progression:tb;isolation:auto;mix-blend-mode:normal" transform="translate(0 -1020.362)"></path><path fill="#373748" d="M9.516 1028.355c-.823 0-1.5.678-1.5 1.5 0 .823.677 1.5 1.5 1.5.822 0 1.5-.677 1.5-1.5 0-.822-.678-1.5-1.5-1.5zm0 1c.282 0 .5.218.5.5 0 .282-.218.5-.5.5a.493.493 0 0 1-.5-.5c0-.282.218-.5.5-.5z" font-family="sans-serif" font-weight="400" overflow="visible" style="line-height:normal;text-indent:0;text-align:start;text-decoration-line:none;text-decoration-style:solid;text-decoration-color:#000;text-transform:none;block-progression:tb;isolation:auto;mix-blend-mode:normal" transform="translate(0 -1020.362)"></path><path fill="#f55" d="M9.5 1045.862c.831 0 1.5.67 1.5 1.5 0 .831-.669 1.5-1.5 1.5s-1.5-.669-1.5-1.5c0-.83.669-1.5 1.5-1.5z" overflow="visible" style="isolation:auto;mix-blend-mode:normal" transform="translate(0 -1020.362)"></path><path fill="#373748" d="M9.5 1041.361c-.823 0-1.5.678-1.5 1.5 0 .823.677 1.5 1.5 1.5s1.5-.677 1.5-1.5c0-.822-.677-1.5-1.5-1.5zm0 1c.282 0 .5.218.5.5 0 .282-.218.5-.5.5a.493.493 0 0 1-.5-.5c0-.282.218-.5.5-.5z" font-family="sans-serif" font-weight="400" overflow="visible" style="line-height:normal;text-indent:0;text-align:start;text-decoration-line:none;text-decoration-style:solid;text-decoration-color:#000;text-transform:none;block-progression:tb;isolation:auto;mix-blend-mode:normal" transform="translate(0 -1020.362)"></path><path fill="#f55" d="M16 1034.862c.831 0 1.5.67 1.5 1.5 0 .831-.669 1.5-1.5 1.5s-1.5-.669-1.5-1.5c0-.83.669-1.5 1.5-1.5zm6.5 11c.831 0 1.5.67 1.5 1.5 0 .831-.669 1.5-1.5 1.5s-1.5-.669-1.5-1.5c0-.83.669-1.5 1.5-1.5zm4.5-4.5c.831 0 1.5.67 1.5 1.5 0 .831-.669 1.5-1.5 1.5s-1.5-.669-1.5-1.5c0-.83.669-1.5 1.5-1.5zm0-13c.831 0 1.5.67 1.5 1.5 0 .831-.669 1.5-1.5 1.5s-1.5-.669-1.5-1.5c0-.83.669-1.5 1.5-1.5zm-17.5-4.5c.831 0 1.5.67 1.5 1.5 0 .831-.669 1.5-1.5 1.5s-1.5-.669-1.5-1.5c0-.83.669-1.5 1.5-1.5zm13 0c.831 0 1.5.67 1.5 1.5 0 .831-.669 1.5-1.5 1.5s-1.5-.669-1.5-1.5c0-.83.669-1.5 1.5-1.5zm-17.5 17.5c.831 0 1.5.67 1.5 1.5 0 .831-.669 1.5-1.5 1.5s-1.5-.669-1.5-1.5c0-.83.669-1.5 1.5-1.5zm0-13c.831 0 1.5.67 1.5 1.5 0 .831-.669 1.5-1.5 1.5s-1.5-.669-1.5-1.5c0-.83.669-1.5 1.5-1.5z" overflow="visible" style="isolation:auto;mix-blend-mode:normal" transform="translate(0 -1020.362)"></path>
</g>
</svg>
